# xmcd
#
# Track frame offsets:
#	150
#	13751
#	32145
#	45154
#	62656
#	79106
#	94045
#	109221
#	125621
#	142519
#	157528
#	168406
#	185866
#	201696
#	214704
#	226903
#
# Disc length: 3259
#
# Revision: 2
# Processed by: cddbd v1.5.1PL0 Copyright (c) Steve Scherf et al.
# Submitted via: audiograbber 1.82.02
# Normalized: r1:DSETVAR1
#
DISCID=cf0cb910
DTITLE=Various Artist - Hot Hits Country Vol. 91
DYEAR=1999
DGENRE=Country
TTITLE0=George Strait - What Do You Say To That
TTITLE1=Mark Wills - She's In Love
TTITLE2=The Wilkinsons - The Yodelin' Blues
TTITLE3=Bryan White - You're Still Beautiful To Me
TTITLE4=Lee Roy Parnell - She Won't Be Lonely Long
TTITLE5=Jessica Andrews - You Go First (Do You Wanna Kiss)
TTITLE6=Steve Wariner - I'm Already Taken
TTITLE7=Susan Ashton - You're Lucky I Love You
TTITLE8=Anita Cochran - For Crying Out Loud
TTITLE9=Rebecca Lynn Howard - When My Dreams Come True
TTITLE10=Julie Reeves - Trouble Is A Woman
TTITLE11=John Berry - Love Is For Giving
TTITLE12=Alison Krauss - Forget About It
TTITLE13=Michael Peterson - Sure Feels Real Good
TTITLE14=Charles Alan Rowe - Hot Picante Sauce and 'Tato Chips
TTITLE15=Amazing Rhythm Aces - Third Rate Romance
EXTD=
EXTT0=
EXTT1=
EXTT2=
EXTT3=
EXTT4=
EXTT5=
EXTT6=
EXTT7=
EXTT8=
EXTT9=
EXTT10=
EXTT11=
EXTT12=
EXTT13=
EXTT14=
EXTT15=
PLAYORDER=
